<?xml version="1.0" encoding="UTF-8" standalone="no"?>
<svg width="135px" height="40px" viewBox="0 0 135 40" version="1.1" xmlns="http://www.w3.org/2000/svg" xmlns:xlink="http://www.w3.org/1999/xlink" xmlns:sketch="http://www.bohemiancoding.com/sketch/ns">
    <!-- Generator: Sketch 3.1.1 (8761) - http://www.bohemiancoding.com/sketch -->
    <title>Shape + Shape + Group + Group + Group</title>
    <desc>Created with Sketch.</desc>
    <defs>
        <linearGradient x1="59.9655272%" y1="92.2230062%" x2="33.4209932%" y2="-59.0494218%" id="linearGradient-1">
            <stop stop-color="#D6FFA1" offset="0%"></stop>
            <stop stop-color="#93E2A7" offset="32.64%"></stop>
            <stop stop-color="#00A3B5" offset="100%"></stop>
        </linearGradient>
        <linearGradient x1="-32.1125131%" y1="-127.95104%" x2="80.1008293%" y2="114.654327%" id="linearGradient-2">
            <stop stop-color="#FF177B" offset="0%"></stop>
            <stop stop-color="#FFA976" offset="67.21%"></stop>
            <stop stop-color="#FFEC73" offset="100%"></stop>
        </linearGradient>
        <linearGradient x1="51.1847564%" y1="74.587133%" x2="0.136340811%" y2="-29.5224324%" id="linearGradient-3">
            <stop stop-color="#63FFD4" offset="0%"></stop>
            <stop stop-color="#32A0BA" offset="48.54%"></stop>
            <stop stop-color="#1262A9" offset="83.49%"></stop>
            <stop stop-color="#064AA2" offset="100%"></stop>
        </linearGradient>
        <linearGradient x1="119.194683%" y1="35.3297961%" x2="-23.1310202%" y2="60.8078948%" id="linearGradient-4">
            <stop stop-color="#FF4521" offset="0%"></stop>
            <stop stop-color="#D43E65" offset="34.11%"></stop>
            <stop stop-color="#9F36B9" offset="79.35%"></stop>
            <stop stop-color="#8A33DB" offset="100%"></stop>
        </linearGradient>
    </defs>
    <g id="Page-1" stroke="none" stroke-width="1" fill="none" fill-rule="evenodd" sketch:type="MSPage">
        <g id="Shape-+-Shape-+-Group-+-Group-+-Group" sketch:type="MSLayerGroup">
            <g id="Shape-+-Shape" sketch:type="MSShapeGroup">
                <path d="M130.229,40 L4.76,40 C2.153,40 0,37.872 0,35.267 L0,4.726 C0,2.12 2.153,0 4.76,0 L130.228,0 C132.834,0 135,2.12 135,4.726 L135,35.267 C135,37.872 132.834,40 130.229,40 L130.229,40 L130.229,40 Z" id="Shape" fill="#A6A6A6"></path>
                <path d="M130.198,39.098 L4.729,39.098 C2.61,39.098 0.89,37.384 0.89,35.268 L0.89,4.725 C0.89,2.61 2.61,0.89 4.729,0.89 L130.197,0.89 C132.318,0.89 134.031,2.61 134.031,4.725 L134.032,35.268 C134.032,37.384 132.318,39.098 130.198,39.098 Z" id="Shape" fill="#000000"></path>
            </g>
            <g id="Group-+-Group-+-Group" transform="translate(18.000000, 6.000000)" sketch:type="MSShapeGroup">
                <g id="Group" transform="translate(20.756357, 10.998256)" fill="#FFFFFF">
                    <g id="Shape">
                        <path d="M49.2818952,11.0741064 L48.4681591,11.8326068 C48.2647251,11.9337402 48.1121495,12.0348736 47.9087155,12.136007 C47.3492719,12.3888405 46.7389698,12.4394071 46.2303847,12.4394071 C45.6709411,12.4394071 44.8063464,12.3888405 43.9417518,11.7820401 C42.7211476,10.9224063 42.2125625,9.4559721 42.2125625,8.19180471 C42.2125625,5.56233653 44.3994784,4.24760244 46.1286677,4.24760244 C46.7389698,4.24760244 47.4001304,4.39930253 47.9087155,4.7027027 C48.7733101,5.25893636 48.9767442,6.01743679 49.1293197,6.37140366 L45.1114975,7.98953793 L43.7891763,8.09067132 C44.1960443,10.2650392 45.6709411,11.5292066 47.3492719,11.5292066 C48.1121495,11.5797733 48.7224516,11.3269398 49.2818952,11.0741064 C49.2818952,11.0235397 49.3836123,10.972973 49.2818952,11.0741064 L49.2818952,11.0741064 Z M46.8406868,6.72537053 C47.1458379,6.62423714 47.3492719,6.52310375 47.3492719,6.27027027 C47.3492719,5.61290323 46.5863943,4.80383609 45.6709411,4.80383609 C45.0097805,4.80383609 43.6874592,5.30950305 43.6874592,7.18047079 C43.6874592,7.48387097 43.7383178,7.78727114 43.7383178,8.09067132 L46.8406868,6.72537053 L46.8406868,6.72537053 Z"></path>
                        <path d="M40.8393827,10.9224063 C40.8393827,11.5797733 40.9410998,11.6809067 41.5005434,11.7314734 C41.8056944,11.7820401 42.1108455,11.7820401 42.365138,11.8326068 L41.7548359,12.1865737 L38.7541839,12.1865737 C39.1610519,11.6809067 39.2119105,11.63034 39.2119105,11.2763731 L39.2119105,10.8718396 L39.2119105,0.70793374 L37.8895892,0.70793374 L39.1610519,0.101133391 L41.6022604,0.101133391 C41.0936753,0.404533566 40.8902413,0.606800349 40.8393827,1.2136007 L40.8393827,10.9224063 L40.8393827,10.9224063 Z"></path>
                        <path d="M36.1603999,5.10723627 C36.567268,5.41063644 37.3810041,6.11857018 37.3810041,7.43330427 C37.3810041,8.69747167 36.668985,9.30427201 35.9569659,9.86050567 C35.7535318,10.0627724 35.4992393,10.3156059 35.4992393,10.7201395 C35.4992393,11.0741064 35.7535318,11.3269398 35.9569659,11.4786399 L36.567268,11.9337402 C37.3301456,12.5911072 37.9913062,13.1473409 37.9913062,14.3103749 C37.9913062,15.9285092 36.4146925,17.5466434 33.4648989,17.5466434 C30.972832,17.5466434 29.7522278,16.3836094 29.7522278,15.119442 C29.7522278,14.5126417 30.0573788,13.6530078 31.074549,13.0462075 C32.1425777,12.3888405 33.566616,12.2877071 34.3294936,12.2877071 C34.075201,11.9843069 33.8209085,11.63034 33.8209085,11.1246731 C33.8209085,10.8212729 33.9226255,10.6695728 33.973484,10.467306 C33.77005,10.467306 33.6174745,10.5178727 33.4140404,10.5178727 C31.5831341,10.5178727 30.5659639,9.15257193 30.5659639,7.83783784 C30.5659639,7.02877071 30.9219735,6.16913688 31.6848511,5.56233653 C32.6511628,4.7532694 33.8209085,4.60156931 34.7363617,4.60156931 L38.2964573,4.60156931 L37.1775701,5.20836966 L36.1603999,5.20836966 L36.1603999,5.10723627 Z M34.9397957,12.6416739 L34.5329276,12.6416739 C34.3803521,12.6416739 33.4648989,12.6922406 32.7528798,12.8945074 C32.3968702,13.0462075 31.277983,13.4507411 31.277983,14.6643418 C31.277983,15.8779425 32.4477288,16.7375763 34.2786351,16.7375763 C35.9061074,16.7375763 36.8215605,15.9285092 36.8215605,14.9171752 C36.8215605,14.0575414 36.2621169,13.6024412 34.9397957,12.6416739 L34.9397957,12.6416739 Z M35.4483808,9.40540541 C35.8552489,9.00087184 35.8552489,8.44463819 35.8552489,8.14123801 C35.8552489,6.92763731 35.1432297,5.00610288 33.668333,5.00610288 C33.2106064,5.00610288 32.7528798,5.20836966 32.4477288,5.56233653 C32.1425777,5.9163034 32.0917192,6.37140366 32.0917192,6.82650392 C32.0917192,7.98953793 32.7528798,9.86050567 34.2277766,9.86050567 C34.7363617,9.91107236 35.1940882,9.70880558 35.4483808,9.40540541 L35.4483808,9.40540541 Z"></path>
                        <path d="M25.5309715,12.4394071 C22.784612,12.4394071 21.3605738,10.3156059 21.3605738,8.39407149 C21.3605738,6.16913688 23.1914801,4.24760244 25.7852641,4.24760244 C28.3281895,4.24760244 29.9048033,6.21970357 29.9048033,8.2929381 C29.9048033,10.3156059 28.3281895,12.4394071 25.5309715,12.4394071 L25.5309715,12.4394071 Z M27.6670289,11.0235397 C28.073897,10.467306 28.175614,9.80993897 28.175614,9.15257193 C28.175614,7.63557105 27.4635949,4.80383609 25.3275375,4.80383609 C24.7680939,4.80383609 24.2086503,5.00610288 23.8017822,5.36006975 C23.1406216,5.9668701 22.9880461,6.72537053 22.9880461,7.43330427 C22.9880461,9.10200523 23.8017822,11.8831735 25.8869811,11.8831735 C26.5990002,11.9337402 27.2601608,11.5797733 27.6670289,11.0235397 L27.6670289,11.0235397 Z"></path>
                        <path d="M16.3764399,12.4394071 C13.6300804,12.4394071 12.2060422,10.3156059 12.2060422,8.39407149 C12.2060422,6.16913688 14.0369485,4.24760244 16.6307324,4.24760244 C19.1736579,4.24760244 20.7502717,6.21970357 20.7502717,8.2929381 C20.7502717,10.3156059 19.1736579,12.4394071 16.3764399,12.4394071 L16.3764399,12.4394071 Z M18.5633558,11.0235397 C18.9702239,10.467306 19.0719409,9.80993897 19.0719409,9.15257193 C19.0719409,7.63557105 18.3599218,4.80383609 16.2238644,4.80383609 C15.6644208,4.80383609 15.1049772,5.00610288 14.6981091,5.36006975 C14.0369485,5.9668701 13.884373,6.72537053 13.884373,7.43330427 C13.884373,9.10200523 14.7489676,11.8831735 16.783308,11.8831735 C17.4444686,11.9337402 18.1564877,11.5797733 18.5633558,11.0235397 L18.5633558,11.0235397 Z"></path>
                        <path d="M11.1380135,11.8326068 L8.84938057,12.3382738 C7.93392741,12.4899738 7.06933275,12.5911072 6.2047381,12.5911072 C1.78004782,12.5911072 0.050858509,9.35483871 0.050858509,6.77593723 C0.050858509,3.69136879 2.44120843,0.809067132 6.56074766,0.809067132 C7.42534232,0.809067132 8.23907846,0.960767219 9.0019561,1.163034 C10.2225603,1.51700087 10.7820039,1.92153444 11.1380135,2.17436792 L9.81569224,3.43853531 L9.25624864,3.5396687 L9.66311671,2.88230166 C9.10367311,2.3766347 8.13736144,1.36530078 6.2047381,1.36530078 C3.66181265,1.36530078 1.72918931,3.28683522 1.72918931,6.06800349 C1.72918931,9.05143854 3.91610519,11.8831735 7.42534232,11.8831735 C8.4425125,11.8831735 9.0019561,11.6809067 9.45968268,11.4786399 L9.45968268,8.89973845 L7.01847424,9.05143854 L8.28993697,8.3435048 L11.6974571,8.3435048 L11.290589,8.74803836 C11.188872,8.95030514 11.188872,9.00087184 11.1380135,9.10200523 C11.1380135,9.25370532 11.087155,9.70880558 11.087155,9.86050567 L11.087155,11.8326068 L11.1380135,11.8326068 Z"></path>
                    </g>
                    <g transform="translate(53.401434, 1.517001)" id="Shape">
                        <path d="M0.864594653,9.60767219 L0.864594653,13.956408 L0,13.956408 L0,2.88230166 L0.864594653,2.88230166 L0.864594653,4.14646905 C1.42403825,3.33740192 2.44120843,2.68003487 3.66181265,2.68003487 C5.79787003,2.68003487 7.27276679,4.29816914 7.27276679,6.87707062 C7.27276679,9.40540541 5.79787003,11.0741064 3.66181265,11.0741064 C2.49206694,11.1246731 1.47489676,10.5178727 0.864594653,9.60767219 L0.864594653,9.60767219 Z M6.30645512,6.87707062 C6.30645512,4.95553618 5.28928494,3.43853531 3.50923712,3.43853531 C2.39034992,3.43853531 1.32232123,4.29816914 0.864594653,5.05666957 L0.864594653,8.59633827 C1.32232123,9.35483871 2.39034992,10.2650392 3.50923712,10.2650392 C5.28928494,10.3156059 6.30645512,8.84917175 6.30645512,6.87707062 L6.30645512,6.87707062 Z"></path>
                        <path d="M8.4425125,10.9224063 L8.4425125,-0.151700087 L9.30710715,-0.151700087 L9.30710715,10.9224063 L8.4425125,10.9224063 L8.4425125,10.9224063 Z"></path>
                        <path d="M19.0210824,13.2484743 C19.2245164,13.3496077 19.5296675,13.4001744 19.7331015,13.4001744 C20.2416866,13.4001744 20.6485547,13.1979076 20.9537057,12.4394071 L21.5640078,11.0235397 L18.1564877,2.93286835 L19.1227994,2.93286835 L22.0725929,9.91107236 L24.9715279,2.93286835 L25.9378396,2.93286835 L21.8183004,12.6416739 C21.3605738,13.6530078 20.6994132,14.1081081 19.78396,14.1081081 C19.478809,14.1081081 19.1227994,14.0575414 18.9193654,14.0069747 L19.0210824,13.2484743 L19.0210824,13.2484743 Z"></path>
                        <path d="M16.4781569,10.8718396 C16.4272984,10.6190061 16.3764399,10.3661726 16.3255814,10.1639058 C16.2747229,9.96163906 16.2747229,9.75937228 16.2747229,9.55710549 C15.9695718,10.0122058 15.5627038,10.3661726 15.0032602,10.6190061 C14.4438166,10.9224063 13.9352315,11.0235397 13.2740709,11.0235397 C12.4094762,11.0235397 11.7483156,10.8212729 11.290589,10.4167393 C10.8328624,10.0122058 10.5785699,9.40540541 10.5785699,8.69747167 C10.5785699,7.98953793 10.9345794,7.38273758 11.5957401,6.92763731 C12.2569007,6.47253705 13.1723538,6.27027027 14.2403825,6.27027027 L16.2747229,6.27027027 L16.2747229,5.25893636 C16.2747229,4.7027027 16.0712889,4.24760244 15.6644208,3.89363557 C15.2575527,3.5902354 14.6981091,3.38796861 13.98609,3.38796861 C13.3249294,3.38796861 12.8163443,3.5396687 12.4094762,3.84306888 C12.0026081,4.14646905 11.7991741,4.50043592 11.7991741,4.95553618 L10.9345794,4.95553618 L10.9345794,4.90496949 C10.8837209,4.29816914 11.188872,3.79250218 11.7483156,3.28683522 C12.3586177,2.83173496 13.1214953,2.57890148 14.0369485,2.57890148 C15.0032602,2.57890148 15.7661378,2.78116827 16.3255814,3.23626853 C16.885025,3.69136879 17.190176,4.34873583 17.190176,5.15780296 L17.190176,9.10200523 C17.190176,9.40540541 17.190176,9.65823888 17.2410346,9.91107236 C17.2918931,10.1639058 17.3427516,10.467306 17.3936101,10.7201395 L16.4781569,10.7201395 L16.4781569,10.8718396 Z M13.4266464,10.2650392 C14.189524,10.2650392 14.6981091,10.1133391 15.2575527,9.75937228 C15.8169963,9.4559721 16.1730059,9.00087184 16.3764399,8.49520488 L16.3764399,6.97820401 L14.3420995,6.97820401 C13.5792219,6.97820401 12.9180613,7.1299041 12.4094762,7.48387097 C11.9008911,7.83783784 11.6465986,8.2423714 11.6465986,8.74803836 C11.6465986,9.20313862 11.7991741,9.55710549 12.1551837,9.86050567 C12.4094762,10.1133391 12.8672028,10.2650392 13.4266464,10.2650392 L13.4266464,10.2650392 Z"></path>
                    </g>
                </g>
                <g id="Group" transform="translate(-0.095631, 9.986922)">
                    <path d="M9.5613997,8.95030514 L12.3586177,6.21970357 L9.5613997,8.95030514 L0.661160617,0.151700087 L9.5613997,8.95030514 L0.661160617,17.8500436 L9.5613997,8.95030514 L12.3586177,11.7314734 L9.5613997,8.95030514 Z" id="Shape"></path>
                    <path d="M12.3586177,6.21970357 L1.47489676,0.252833479 C1.16974571,0.101133391 0.864594653,0.0505666957 0.661160617,0.101133391 L9.5613997,8.95030514 L12.3586177,6.21970357 L12.3586177,6.21970357 Z" id="Shape" fill="url(#linearGradient-1)"></path>
                    <path d="M12.3586177,11.7314734 L16.0712889,9.70880558 C16.8341665,9.30427201 16.8341665,8.64690497 16.0712889,8.19180471 L12.3586177,6.16913688 L9.5613997,8.95030514 L12.3586177,11.7314734 L12.3586177,11.7314734 Z" id="Shape" fill="url(#linearGradient-2)"></path>
                    <path d="M0.661160617,0.151700087 C0.356009563,0.252833479 0.101717018,0.606800349 0.101717018,1.11246731 L0.101717018,16.9398431 C0.101717018,17.44551 0.305151054,17.7489102 0.610302108,17.8500436 L9.51054119,9.00087184 L0.661160617,0.151700087 L0.661160617,0.151700087 Z" id="Shape" fill="url(#linearGradient-3)"></path>
                    <path d="M0.661160617,17.8500436 C0.915453162,17.951177 1.16974571,17.9006103 1.47489676,17.6983435 L12.3586177,11.7820401 L9.5613997,9.00087184 L0.661160617,17.8500436 L0.661160617,17.8500436 Z" id="Shape" fill="url(#linearGradient-4)"></path>
                </g>
                <g id="Group" transform="translate(20.756357, 0.379250)" fill="#FFFFFF">
                    <path d="M0.050858509,5.61290323 L0.050858509,0.202266783 L2.08519887,0.202266783 C3.76352967,0.202266783 4.93327537,1.31473409 4.93327537,2.88230166 C4.93327537,4.50043592 3.81438818,5.56233653 2.08519887,5.56233653 L0.050858509,5.56233653 L0.050858509,5.61290323 Z M3.91610519,2.88230166 C3.91610519,1.87096774 3.25494458,1.01133391 2.08519887,1.01133391 L1.01717018,1.01133391 L1.01717018,4.7532694 L2.03434036,4.7532694 C3.25494458,4.7532694 3.91610519,3.94420227 3.91610519,2.88230166 L3.91610519,2.88230166 Z" id="Shape"></path>
                    <path d="M6.00130406,5.61290323 L6.00130406,0.202266783 L6.96761574,0.202266783 L6.96761574,5.61290323 L6.00130406,5.61290323 L6.00130406,5.61290323 Z" id="Shape"></path>
                    <path d="M7.98478592,4.85440279 L8.54422952,4.09590235 C8.90023908,4.50043592 9.51054119,4.85440279 10.2734188,4.85440279 C11.0362965,4.85440279 11.3414475,4.44986922 11.3414475,4.09590235 C11.3414475,2.98343505 8.18821995,3.69136879 8.18821995,1.66870096 C8.18821995,0.758500436 8.95109759,0.101133391 10.1717018,0.101133391 C10.9854379,0.101133391 11.6974571,0.35396687 12.2060422,0.859633827 L11.6465986,1.56756757 C11.2397305,1.163034 10.6294284,0.960767219 10.0699848,0.960767219 C9.51054119,0.960767219 9.15453162,1.2136007 9.15453162,1.61813426 C9.15453162,2.62946818 12.3077592,2.02266783 12.3077592,3.99476896 C12.3077592,4.90496949 11.6465986,5.66346992 10.2225603,5.66346992 C9.20539013,5.71403662 8.4425125,5.36006975 7.98478592,4.85440279 L7.98478592,4.85440279 Z" id="Shape"></path>
                    <path d="M13.3757879,5.61290323 L13.3757879,0.202266783 L15.7661378,0.202266783 C16.885025,0.202266783 17.5461856,0.960767219 17.5461856,1.87096774 C17.5461856,2.78116827 16.9358835,3.5396687 15.7661378,3.5396687 L14.3420995,3.5396687 L14.3420995,5.56233653 L13.3757879,5.56233653 L13.3757879,5.61290323 Z M16.5290154,1.92153444 C16.5290154,1.41586748 16.1221474,1.06190061 15.6135623,1.06190061 L14.291241,1.06190061 L14.291241,2.78116827 L15.6135623,2.78116827 C16.1730059,2.73060157 16.5290154,2.42720139 16.5290154,1.92153444 L16.5290154,1.92153444 Z" id="Shape"></path>
                    <path d="M18.3090632,2.93286835 C18.3090632,1.31473409 19.478809,0.151700087 21.1062812,0.151700087 C22.7337535,0.151700087 23.9034992,1.31473409 23.9034992,2.93286835 C23.9034992,4.55100262 22.7337535,5.71403662 21.1062812,5.71403662 C19.4279504,5.71403662 18.3090632,4.50043592 18.3090632,2.93286835 L18.3090632,2.93286835 Z M22.8863291,2.93286835 C22.8863291,1.82040105 22.1743099,0.960767219 21.1062812,0.960767219 C19.987394,0.960767219 19.3262334,1.76983435 19.3262334,2.93286835 C19.3262334,4.04533566 20.0382526,4.90496949 21.1062812,4.90496949 C22.1743099,4.85440279 22.8863291,3.99476896 22.8863291,2.93286835 L22.8863291,2.93286835 Z" id="Shape"></path>
                    <path d="M28.7350576,5.61290323 L25.8869811,1.76983435 L25.8869811,5.61290323 L24.9206694,5.61290323 L24.9206694,0.202266783 L25.8869811,0.202266783 L28.6841991,3.94420227 L28.6841991,0.202266783 L29.6505108,0.202266783 L29.6505108,5.61290323 L28.7350576,5.61290323 L28.7350576,5.61290323 Z" id="Shape"></path>
                    <path d="M31.0236905,5.61290323 L31.0236905,0.202266783 L31.9900022,0.202266783 L31.9900022,5.61290323 L31.0236905,5.61290323 L31.0236905,5.61290323 Z" id="Shape"></path>
                    <path d="M33.3123234,5.61290323 L33.3123234,0.202266783 L35.9569659,0.202266783 C36.9741361,0.202266783 37.4827211,0.809067132 37.4827211,1.56756757 C37.4827211,2.22493461 37.0249946,2.68003487 36.5164095,2.78116827 C37.1267116,2.88230166 37.5844382,3.43853531 37.5844382,4.09590235 C37.5844382,4.95553618 37.0249946,5.56233653 36.0078244,5.56233653 L33.3123234,5.56233653 L33.3123234,5.61290323 Z M36.567268,1.71926765 C36.567268,1.31473409 36.3129754,1.01133391 35.8043903,1.01133391 L34.2786351,1.01133391 L34.2786351,2.42720139 L35.8043903,2.42720139 C36.3129754,2.42720139 36.567268,2.12380122 36.567268,1.71926765 L36.567268,1.71926765 Z M36.668985,3.99476896 C36.668985,3.5902354 36.3638339,3.23626853 35.8552489,3.23626853 L34.2786351,3.23626853 L34.2786351,4.7532694 L35.8552489,4.7532694 C36.3638339,4.7532694 36.668985,4.50043592 36.668985,3.99476896 L36.668985,3.99476896 Z" id="Shape"></path>
                    <path d="M38.7541839,5.61290323 L38.7541839,0.202266783 L39.7204955,0.202266783 L39.7204955,4.7532694 L42.1108455,4.7532694 L42.1108455,5.56233653 L38.7541839,5.56233653 L38.7541839,5.61290323 Z" id="Shape"></path>
                    <path d="M43.1280156,5.61290323 L43.1280156,0.202266783 L46.8406868,0.202266783 L46.8406868,1.01133391 L44.0943273,1.01133391 L44.0943273,2.42720139 L46.7898283,2.42720139 L46.7898283,3.23626853 L44.0943273,3.23626853 L44.0943273,4.7532694 L46.8406868,4.7532694 L46.8406868,5.56233653 L43.1280156,5.56233653 L43.1280156,5.61290323 Z" id="Shape"></path>
                    <path d="M49.9939144,4.85440279 L50.553358,4.09590235 C50.9093675,4.50043592 51.5196696,4.85440279 52.2825473,4.85440279 C53.0454249,4.85440279 53.350576,4.44986922 53.350576,4.09590235 C53.350576,2.98343505 50.1973484,3.69136879 50.1973484,1.66870096 C50.1973484,0.758500436 50.960226,0.101133391 52.1808303,0.101133391 C52.9945664,0.101133391 53.7065855,0.35396687 54.2151706,0.859633827 L53.655727,1.56756757 C53.2488589,1.163034 52.6385568,0.960767219 52.0791132,0.960767219 C51.5196696,0.960767219 51.1636601,1.2136007 51.1636601,1.61813426 C51.1636601,2.62946818 54.3168876,2.02266783 54.3168876,3.99476896 C54.3168876,4.90496949 53.655727,5.66346992 52.2316888,5.66346992 C51.2145186,5.71403662 50.4516409,5.36006975 49.9939144,4.85440279 L49.9939144,4.85440279 Z" id="Shape"></path>
                    <path d="M55.3849163,3.48910201 L55.3849163,0.202266783 L56.351228,0.202266783 L56.351228,3.43853531 C56.351228,4.29816914 56.8089546,4.85440279 57.7244077,4.85440279 C58.6398609,4.85440279 59.0975875,4.29816914 59.0975875,3.43853531 L59.0975875,0.202266783 L60.0638992,0.202266783 L60.0638992,3.48910201 C60.0638992,4.80383609 59.3010215,5.71403662 57.7244077,5.71403662 C56.147794,5.71403662 55.3849163,4.80383609 55.3849163,3.48910201 L55.3849163,3.48910201 Z" id="Shape"></path>
                    <path d="M64.5394479,5.61290323 L63.3188437,3.5902354 L62.3525321,3.5902354 L62.3525321,5.61290323 L61.3862204,5.61290323 L61.3862204,0.202266783 L63.7765703,0.202266783 C64.844599,0.202266783 65.5566181,0.910200523 65.5566181,1.87096774 C65.5566181,2.83173496 64.946316,3.33740192 64.2851554,3.43853531 L65.6074766,5.56233653 L64.5394479,5.56233653 L64.5394479,5.61290323 Z M64.641165,1.87096774 C64.641165,1.36530078 64.2342969,1.01133391 63.7257118,1.01133391 L62.4033906,1.01133391 L62.4033906,2.73060157 L63.7257118,2.73060157 C64.2342969,2.78116827 64.641165,2.42720139 64.641165,1.87096774 L64.641165,1.87096774 Z" id="Shape"></path>
                </g>
            </g>
        </g>
    </g>
</svg>