<?xml version="1.0" encoding="UTF-8" standalone="no"?>
<svg width="119px" height="35px" viewBox="0 0 119 35" version="1.1" xmlns="http://www.w3.org/2000/svg" xmlns:xlink="http://www.w3.org/1999/xlink" xmlns:sketch="http://www.bohemiancoding.com/sketch/ns">
    <!-- Generator: Sketch 3.1.1 (8761) - http://www.bohemiancoding.com/sketch -->
    <title>Group</title>
    <desc>Created with Sketch.</desc>
    <defs>
        <linearGradient x1="59.9655272%" y1="92.2230062%" x2="33.4209932%" y2="-59.0494218%" id="linearGradient-1">
            <stop stop-color="#D6FFA1" offset="0%"></stop>
            <stop stop-color="#93E2A7" offset="32.64%"></stop>
            <stop stop-color="#00A3B5" offset="100%"></stop>
        </linearGradient>
        <linearGradient x1="-32.1125131%" y1="-127.95104%" x2="80.1008293%" y2="114.654327%" id="linearGradient-2">
            <stop stop-color="#FF177B" offset="0%"></stop>
            <stop stop-color="#FFA976" offset="67.21%"></stop>
            <stop stop-color="#FFEC73" offset="100%"></stop>
        </linearGradient>
        <linearGradient x1="51.1847564%" y1="74.587133%" x2="0.136340811%" y2="-29.5224324%" id="linearGradient-3">
            <stop stop-color="#63FFD4" offset="0%"></stop>
            <stop stop-color="#32A0BA" offset="48.54%"></stop>
            <stop stop-color="#1262A9" offset="83.49%"></stop>
            <stop stop-color="#064AA2" offset="100%"></stop>
        </linearGradient>
        <linearGradient x1="119.194683%" y1="35.3297961%" x2="-23.1310202%" y2="60.8078948%" id="linearGradient-4">
            <stop stop-color="#FF4521" offset="0%"></stop>
            <stop stop-color="#D43E65" offset="34.11%"></stop>
            <stop stop-color="#9F36B9" offset="79.35%"></stop>
            <stop stop-color="#8A33DB" offset="100%"></stop>
        </linearGradient>
    </defs>
    <g id="Page-1" stroke="none" stroke-width="1" fill="none" fill-rule="evenodd" sketch:type="MSPage">
        <g id="Group" sketch:type="MSLayerGroup">
            <g id="Shape-+-Shape" sketch:type="MSShapeGroup">
                <path d="M114.766244,35 L4.16852593,35 C1.8705037,35 0,33.138 0,30.858625 L0,4.13525 C0,1.855 1.8705037,0 4.16852593,0 L114.766244,0 C117.063385,0 119,1.855 119,4.13525 L119,30.858625 C119,33.138 117.063385,35 114.766244,35 L114.766244,35 L114.766244,35 Z" id="Shape" fill="#A6A6A6"></path>
                <path d="M118.146726,30.8595 C118.146726,32.711 116.635867,34.21075 114.767126,34.21075 L4.16852593,34.21075 C2.30066667,34.21075 0.784518519,32.711 0.784518519,30.8595 L0.784518519,4.134375 C0.784518519,2.28375 2.30066667,0.77875 4.16852593,0.77875 L114.766244,0.77875 C116.635867,0.77875 118.145844,2.28375 118.145844,4.134375 L118.146726,30.8595 L118.146726,30.8595 Z" id="Shape" fill="#000000"></path>
            </g>
            <g id="Group-+-Group-+-Group" transform="translate(14.000000, 5.000000)" sketch:type="MSShapeGroup">
                <g id="Group" transform="translate(19.255814, 9.662162)" fill="#FFFFFF">
                    <g id="Shape">
                        <path d="M45.0697674,10.3581081 L44.3255814,11.0675676 C44.1395349,11.1621622 44,11.2567568 43.8139535,11.3513514 C43.3023256,11.5878378 42.744186,11.6351351 42.2790698,11.6351351 C41.7674419,11.6351351 40.9767442,11.5878378 40.1860465,11.0202703 C39.0697674,10.2162162 38.6046512,8.84459459 38.6046512,7.66216216 C38.6046512,5.2027027 40.6046512,3.97297297 42.1860465,3.97297297 C42.744186,3.97297297 43.3488372,4.11486486 43.8139535,4.39864865 C44.6046512,4.91891892 44.7906977,5.62837838 44.9302326,5.95945946 L41.255814,7.47297297 L40.0465116,7.56756757 C40.4186047,9.60135135 41.7674419,10.7837838 43.3023256,10.7837838 C44,10.8310811 44.5581395,10.5945946 45.0697674,10.3581081 C45.0697674,10.3108108 45.1627907,10.2635135 45.0697674,10.3581081 L45.0697674,10.3581081 Z M42.8372093,6.29054054 C43.1162791,6.19594595 43.3023256,6.10135135 43.3023256,5.86486486 C43.3023256,5.25 42.6046512,4.49324324 41.7674419,4.49324324 C41.1627907,4.49324324 39.9534884,4.96621622 39.9534884,6.71621622 C39.9534884,7 40,7.28378378 40,7.56756757 L42.8372093,6.29054054 L42.8372093,6.29054054 Z"></path>
                        <path d="M37.3488372,10.2162162 C37.3488372,10.8310811 37.4418605,10.9256757 37.9534884,10.972973 C38.2325581,11.0202703 38.5116279,11.0202703 38.744186,11.0675676 L38.1860465,11.3986486 L35.4418605,11.3986486 C35.8139535,10.9256757 35.8604651,10.8783784 35.8604651,10.5472973 L35.8604651,10.1689189 L35.8604651,0.662162162 L34.6511628,0.662162162 L35.8139535,0.0945945946 L38.0465116,0.0945945946 C37.5813953,0.378378378 37.3953488,0.567567568 37.3488372,1.13513514 L37.3488372,10.2162162 L37.3488372,10.2162162 Z"></path>
                        <path d="M33.0697674,4.77702703 C33.4418605,5.06081081 34.1860465,5.72297297 34.1860465,6.9527027 C34.1860465,8.13513514 33.5348837,8.7027027 32.8837209,9.22297297 C32.6976744,9.41216216 32.4651163,9.64864865 32.4651163,10.027027 C32.4651163,10.3581081 32.6976744,10.5945946 32.8837209,10.7364865 L33.4418605,11.1621622 C34.1395349,11.777027 34.744186,12.2972973 34.744186,13.3851351 C34.744186,14.8986486 33.3023256,16.4121622 30.6046512,16.4121622 C28.3255814,16.4121622 27.2093023,15.3243243 27.2093023,14.1418919 C27.2093023,13.5743243 27.4883721,12.7702703 28.4186047,12.2027027 C29.3953488,11.5878378 30.6976744,11.4932432 31.3953488,11.4932432 C31.1627907,11.2094595 30.9302326,10.8783784 30.9302326,10.4054054 C30.9302326,10.1216216 31.0232558,9.97972973 31.0697674,9.79054054 C30.8837209,9.79054054 30.744186,9.83783784 30.5581395,9.83783784 C28.8837209,9.83783784 27.9534884,8.56081081 27.9534884,7.33108108 C27.9534884,6.57432432 28.2790698,5.77027027 28.9767442,5.2027027 C29.8604651,4.44594595 30.9302326,4.30405405 31.7674419,4.30405405 L35.0232558,4.30405405 L34,4.87162162 L33.0697674,4.87162162 L33.0697674,4.77702703 Z M31.9534884,11.8243243 L31.5813953,11.8243243 C31.4418605,11.8243243 30.6046512,11.8716216 29.9534884,12.0608108 C29.627907,12.2027027 28.6046512,12.5810811 28.6046512,13.7162162 C28.6046512,14.8513514 29.6744186,15.6554054 31.3488372,15.6554054 C32.8372093,15.6554054 33.6744186,14.8986486 33.6744186,13.9527027 C33.6744186,13.1486486 33.1627907,12.722973 31.9534884,11.8243243 L31.9534884,11.8243243 Z M32.4186047,8.7972973 C32.7906977,8.41891892 32.7906977,7.89864865 32.7906977,7.61486486 C32.7906977,6.47972973 32.1395349,4.68243243 30.7906977,4.68243243 C30.372093,4.68243243 29.9534884,4.87162162 29.6744186,5.2027027 C29.3953488,5.53378378 29.3488372,5.95945946 29.3488372,6.38513514 C29.3488372,7.47297297 29.9534884,9.22297297 31.3023256,9.22297297 C31.7674419,9.27027027 32.1860465,9.08108108 32.4186047,8.7972973 L32.4186047,8.7972973 Z"></path>
                        <path d="M23.3488372,11.6351351 C20.8372093,11.6351351 19.5348837,9.64864865 19.5348837,7.85135135 C19.5348837,5.77027027 21.2093023,3.97297297 23.5813953,3.97297297 C25.9069767,3.97297297 27.3488372,5.81756757 27.3488372,7.75675676 C27.3488372,9.64864865 25.9069767,11.6351351 23.3488372,11.6351351 L23.3488372,11.6351351 Z M25.3023256,10.3108108 C25.6744186,9.79054054 25.7674419,9.17567568 25.7674419,8.56081081 C25.7674419,7.14189189 25.1162791,4.49324324 23.1627907,4.49324324 C22.6511628,4.49324324 22.1395349,4.68243243 21.7674419,5.01351351 C21.1627907,5.58108108 21.0232558,6.29054054 21.0232558,6.9527027 C21.0232558,8.51351351 21.7674419,11.1148649 23.6744186,11.1148649 C24.3255814,11.1621622 24.9302326,10.8310811 25.3023256,10.3108108 L25.3023256,10.3108108 Z"></path>
                        <path d="M14.9767442,11.6351351 C12.4651163,11.6351351 11.1627907,9.64864865 11.1627907,7.85135135 C11.1627907,5.77027027 12.8372093,3.97297297 15.2093023,3.97297297 C17.5348837,3.97297297 18.9767442,5.81756757 18.9767442,7.75675676 C18.9767442,9.64864865 17.5348837,11.6351351 14.9767442,11.6351351 L14.9767442,11.6351351 Z M16.9767442,10.3108108 C17.3488372,9.79054054 17.4418605,9.17567568 17.4418605,8.56081081 C17.4418605,7.14189189 16.7906977,4.49324324 14.8372093,4.49324324 C14.3255814,4.49324324 13.8139535,4.68243243 13.4418605,5.01351351 C12.8372093,5.58108108 12.6976744,6.29054054 12.6976744,6.9527027 C12.6976744,8.51351351 13.4883721,11.1148649 15.3488372,11.1148649 C15.9534884,11.1621622 16.6046512,10.8310811 16.9767442,10.3108108 L16.9767442,10.3108108 Z"></path>
                        <path d="M10.1860465,11.0675676 L8.09302326,11.5405405 C7.25581395,11.6824324 6.46511628,11.777027 5.6744186,11.777027 C1.62790698,11.777027 0.0465116279,8.75 0.0465116279,6.33783784 C0.0465116279,3.4527027 2.23255814,0.756756757 6,0.756756757 C6.79069767,0.756756757 7.53488372,0.898648649 8.23255814,1.08783784 C9.34883721,1.41891892 9.86046512,1.7972973 10.1860465,2.03378378 L8.97674419,3.21621622 L8.46511628,3.31081081 L8.8372093,2.69594595 C8.3255814,2.22297297 7.44186047,1.27702703 5.6744186,1.27702703 C3.34883721,1.27702703 1.58139535,3.07432432 1.58139535,5.67567568 C1.58139535,8.46621622 3.58139535,11.1148649 6.79069767,11.1148649 C7.72093023,11.1148649 8.23255814,10.9256757 8.65116279,10.7364865 L8.65116279,8.32432432 L6.41860465,8.46621622 L7.58139535,7.80405405 L10.6976744,7.80405405 L10.3255814,8.18243243 C10.2325581,8.37162162 10.2325581,8.41891892 10.1860465,8.51351351 C10.1860465,8.65540541 10.1395349,9.08108108 10.1395349,9.22297297 L10.1395349,11.0675676 L10.1860465,11.0675676 Z"></path>
                    </g>
                    <g transform="translate(48.837209, 1.418919)" id="Shape">
                        <path d="M0.790697674,8.98648649 L0.790697674,13.0540541 L0,13.0540541 L0,2.69594595 L0.790697674,2.69594595 L0.790697674,3.87837838 C1.30232558,3.12162162 2.23255814,2.50675676 3.34883721,2.50675676 C5.30232558,2.50675676 6.65116279,4.02027027 6.65116279,6.43243243 C6.65116279,8.7972973 5.30232558,10.3581081 3.34883721,10.3581081 C2.27906977,10.4054054 1.34883721,9.83783784 0.790697674,8.98648649 L0.790697674,8.98648649 Z M5.76744186,6.43243243 C5.76744186,4.63513514 4.8372093,3.21621622 3.20930233,3.21621622 C2.18604651,3.21621622 1.20930233,4.02027027 0.790697674,4.72972973 L0.790697674,8.04054054 C1.20930233,8.75 2.18604651,9.60135135 3.20930233,9.60135135 C4.8372093,9.64864865 5.76744186,8.27702703 5.76744186,6.43243243 L5.76744186,6.43243243 Z"></path>
                        <path d="M7.72093023,10.2162162 L7.72093023,-0.141891892 L8.51162791,-0.141891892 L8.51162791,10.2162162 L7.72093023,10.2162162 L7.72093023,10.2162162 Z"></path>
                        <path d="M17.3953488,12.3918919 C17.5813953,12.4864865 17.8604651,12.5337838 18.0465116,12.5337838 C18.5116279,12.5337838 18.8837209,12.3445946 19.1627907,11.6351351 L19.7209302,10.3108108 L16.6046512,2.74324324 L17.4883721,2.74324324 L20.1860465,9.27027027 L22.8372093,2.74324324 L23.7209302,2.74324324 L19.9534884,11.8243243 C19.5348837,12.7702703 18.9302326,13.1959459 18.0930233,13.1959459 C17.8139535,13.1959459 17.4883721,13.1486486 17.3023256,13.1013514 L17.3953488,12.3918919 L17.3953488,12.3918919 Z"></path>
                        <path d="M15.0697674,10.1689189 C15.0232558,9.93243243 14.9767442,9.69594595 14.9302326,9.50675676 C14.8837209,9.31756757 14.8837209,9.12837838 14.8837209,8.93918919 C14.6046512,9.36486486 14.2325581,9.69594595 13.7209302,9.93243243 C13.2093023,10.2162162 12.744186,10.3108108 12.1395349,10.3108108 C11.3488372,10.3108108 10.744186,10.1216216 10.3255814,9.74324324 C9.90697674,9.36486486 9.6744186,8.7972973 9.6744186,8.13513514 C9.6744186,7.47297297 10,6.90540541 10.6046512,6.47972973 C11.2093023,6.05405405 12.0465116,5.86486486 13.0232558,5.86486486 L14.8837209,5.86486486 L14.8837209,4.91891892 C14.8837209,4.39864865 14.6976744,3.97297297 14.3255814,3.64189189 C13.9534884,3.35810811 13.4418605,3.16891892 12.7906977,3.16891892 C12.1860465,3.16891892 11.7209302,3.31081081 11.3488372,3.59459459 C10.9767442,3.87837838 10.7906977,4.20945946 10.7906977,4.63513514 L10,4.63513514 L10,4.58783784 C9.95348837,4.02027027 10.2325581,3.5472973 10.744186,3.07432432 C11.3023256,2.64864865 12,2.41216216 12.8372093,2.41216216 C13.7209302,2.41216216 14.4186047,2.60135135 14.9302326,3.02702703 C15.4418605,3.4527027 15.7209302,4.06756757 15.7209302,4.82432432 L15.7209302,8.51351351 C15.7209302,8.7972973 15.7209302,9.03378378 15.7674419,9.27027027 C15.8139535,9.50675676 15.8604651,9.79054054 15.9069767,10.027027 L15.0697674,10.027027 L15.0697674,10.1689189 Z M12.2790698,9.60135135 C12.9767442,9.60135135 13.4418605,9.45945946 13.9534884,9.12837838 C14.4651163,8.84459459 14.7906977,8.41891892 14.9767442,7.94594595 L14.9767442,6.52702703 L13.1162791,6.52702703 C12.4186047,6.52702703 11.8139535,6.66891892 11.3488372,7 C10.8837209,7.33108108 10.6511628,7.70945946 10.6511628,8.18243243 C10.6511628,8.60810811 10.7906977,8.93918919 11.1162791,9.22297297 C11.3488372,9.45945946 11.7674419,9.60135135 12.2790698,9.60135135 L12.2790698,9.60135135 Z"></path>
                    </g>
                </g>
                <g id="Group" transform="translate(0.186047, 8.716216)">
                    <path d="M8.74418605,8.37162162 L11.3023256,5.81756757 L8.74418605,8.37162162 L0.604651163,0.141891892 L8.74418605,8.37162162 L0.604651163,16.6959459 L8.74418605,8.37162162 L11.3023256,10.972973 L8.74418605,8.37162162 Z" id="Shape"></path>
                    <path d="M11.3023256,5.81756757 L1.34883721,0.236486486 C1.06976744,0.0945945946 0.790697674,0.0472972973 0.604651163,0.0945945946 L8.74418605,8.37162162 L11.3023256,5.81756757 L11.3023256,5.81756757 Z" id="Shape" fill="url(#linearGradient-1)"></path>
                    <path d="M11.3023256,10.972973 L14.6976744,9.08108108 C15.3953488,8.7027027 15.3953488,8.08783784 14.6976744,7.66216216 L11.3023256,5.77027027 L8.74418605,8.37162162 L11.3023256,10.972973 L11.3023256,10.972973 Z" id="Shape" fill="url(#linearGradient-2)"></path>
                    <path d="M0.604651163,0.141891892 C0.325581395,0.236486486 0.0930232558,0.567567568 0.0930232558,1.04054054 L0.0930232558,15.8445946 C0.0930232558,16.3175676 0.279069767,16.6013514 0.558139535,16.6959459 L8.69767442,8.41891892 L0.604651163,0.141891892 L0.604651163,0.141891892 Z" id="Shape" fill="url(#linearGradient-3)"></path>
                    <path d="M0.604651163,16.6959459 C0.837209302,16.7905405 1.06976744,16.7432432 1.34883721,16.5540541 L11.3023256,11.0202703 L8.74418605,8.41891892 L0.604651163,16.6959459 L0.604651163,16.6959459 Z" id="Shape" fill="url(#linearGradient-4)"></path>
                </g>
                <g id="Group" transform="translate(19.255814, -0.270270)" fill="#FFFFFF">
                    <path d="M0,2.74324324 C0,1.13513514 1.1627907,0.141891892 2.60465116,0.141891892 C3.58139535,0.141891892 4.18604651,0.614864865 4.60465116,1.18243243 L3.90697674,1.60810811 C3.62790698,1.22972973 3.1627907,0.945945946 2.60465116,0.945945946 C1.62790698,0.945945946 0.88372093,1.7027027 0.88372093,2.79054054 C0.88372093,3.83108108 1.62790698,4.63513514 2.60465116,4.63513514 C3.11627907,4.63513514 3.53488372,4.39864865 3.76744186,4.16216216 L3.76744186,3.31081081 L2.3255814,3.31081081 L2.3255814,2.55405405 L4.65116279,2.55405405 L4.65116279,4.44594595 C4.18604651,5.01351351 3.48837209,5.39189189 2.60465116,5.39189189 C1.1627907,5.34459459 0,4.30405405 0,2.74324324 L0,2.74324324 Z" id="Shape"></path>
                    <path d="M5.72093023,5.25 L5.72093023,0.189189189 L9.11627907,0.189189189 L9.11627907,0.945945946 L6.60465116,0.945945946 L6.60465116,2.27027027 L9.06976744,2.27027027 L9.06976744,3.02702703 L6.60465116,3.02702703 L6.60465116,4.44594595 L9.11627907,4.44594595 L9.11627907,5.2027027 L5.72093023,5.2027027 L5.72093023,5.25 Z" id="Shape"></path>
                    <path d="M11.5348837,5.25 L11.5348837,0.993243243 L10.0465116,0.993243243 L10.0465116,0.236486486 L13.9069767,0.236486486 L13.9069767,0.993243243 L12.4186047,0.993243243 L12.4186047,5.25 L11.5348837,5.25 L11.5348837,5.25 Z" id="Shape"></path>
                    <path d="M16.9302326,5.25 L16.9302326,0.189189189 L17.8139535,0.189189189 L17.8139535,5.25 L16.9302326,5.25 L16.9302326,5.25 Z" id="Shape"></path>
                    <path d="M20.2325581,5.25 L20.2325581,0.993243243 L18.744186,0.993243243 L18.744186,0.236486486 L22.6046512,0.236486486 L22.6046512,0.993243243 L21.1162791,0.993243243 L21.1162791,5.25 L20.2325581,5.25 L20.2325581,5.25 Z" id="Shape"></path>
                    <path d="M25.4418605,2.74324324 C25.4418605,1.22972973 26.5116279,0.141891892 28,0.141891892 C29.4883721,0.141891892 30.5581395,1.22972973 30.5581395,2.74324324 C30.5581395,4.25675676 29.4883721,5.34459459 28,5.34459459 C26.4651163,5.34459459 25.4418605,4.20945946 25.4418605,2.74324324 L25.4418605,2.74324324 Z M29.627907,2.74324324 C29.627907,1.7027027 28.9767442,0.898648649 28,0.898648649 C26.9767442,0.898648649 26.372093,1.65540541 26.372093,2.74324324 C26.372093,3.78378378 27.0232558,4.58783784 28,4.58783784 C28.9767442,4.54054054 29.627907,3.73648649 29.627907,2.74324324 L29.627907,2.74324324 Z" id="Shape"></path>
                    <path d="M34.9767442,5.25 L32.372093,1.65540541 L32.372093,5.25 L31.4883721,5.25 L31.4883721,0.189189189 L32.372093,0.189189189 L34.9302326,3.68918919 L34.9302326,0.189189189 L35.8139535,0.189189189 L35.8139535,5.25 L34.9767442,5.25 L34.9767442,5.25 Z" id="Shape"></path>
                </g>
            </g>
        </g>
    </g>
</svg>