<?xml version="1.0" encoding="UTF-8" standalone="no"?>
<!-- Created with Inkscape (http://www.inkscape.org/) -->

<svg
   xmlns:dc="http://purl.org/dc/elements/1.1/"
   xmlns:cc="http://creativecommons.org/ns#"
   xmlns:rdf="http://www.w3.org/1999/02/22-rdf-syntax-ns#"
   xmlns:svg="http://www.w3.org/2000/svg"
   xmlns="http://www.w3.org/2000/svg"
   version="1.1"
   width="300"
   height="146.27997"
   id="svg3028">
  <defs
     id="defs3030" />
  <metadata
     id="metadata3033">
    <rdf:RDF>
      <cc:Work
         rdf:about="">
        <dc:format>image/svg+xml</dc:format>
        <dc:type
           rdf:resource="http://purl.org/dc/dcmitype/StillImage" />
        <dc:title></dc:title>
      </cc:Work>
    </rdf:RDF>
  </metadata>
  <g
     transform="translate(-690,-476.86504)"
     id="layer1">
    <g
       transform="matrix(2.8486091,0,0,2.8486091,-601.50865,-2084.2922)"
       id="g2995">
      <path
         d="m 457.55713,904.95183 5.34,0.07 0.10375,-5.93125 3.595,0 0.07,5.86125 9.9775,0.07 0.0675,5.61875 -22.78125,0.10375 -0.0675,-11.65375 3.695,0 L 457.55713,904.95183 Z"
         id="path2735"
         style="fill:#000000;fill-opacity:1;fill-rule:nonzero;stroke:none" />
      <path
         d="m 504.09962,906.20995 c -5.16375,1.8475 -10.39625,3.4175 -15.73375,4.77875 5.09625,-0.07 10.46625,-0.245 15.66375,-0.17625 l 0.07,4.9525 -22.85125,0.0738 0,-7.1875 c 5.19625,-1.71 10.39375,-3.385 15.73375,-4.71 -5.12625,0.0688 -10.43,0.24625 -15.73375,0.17375 l 0,-5.02375 22.78125,0 L 504.09962,906.20995 Z"
         id="path2747"
         style="fill:#000000;fill-opacity:1;fill-rule:nonzero;stroke:none" />
      <path
         d="m 558.69675,909.4892 c -8.43875,-5.935 -22.015,-6.70125 -31.2275,-1.95625 -5.68125,2.5825 -11.3,7.88625 -14.405,13.3975 3.90875,6.87375 10.98875,12.8375 18.24625,15.00375 l 0.0675,13.325 -22.67375,0.07 -0.1775,-50.23875 50.17,0 L 558.69675,909.4892 Z"
         id="path2751"
         style="fill:#000000;fill-opacity:1;fill-rule:nonzero;stroke:none" />
      <path
         d="m 538.35825,913.25707 c -3.13875,1.18625 -5.16375,4.43 -5.19625,7.6725 0.0325,3.28125 2.0575,6.525 5.19625,7.71 -5.5475,-0.73 -10.43,-3.2425 -14.335,-7.71 3.905,-4.43 8.7875,-6.94125 14.335,-7.6725"
         id="path2755"
         style="fill:#000000;fill-opacity:1;fill-rule:nonzero;stroke:none" />
      <path
         d="m 558.69675,920.79108 0,0.315 c -3.97875,4.36125 -8.72,6.7325 -14.165,7.53375 3.0725,-1.35875 5.3375,-4.5375 5.2,-7.9525 -0.14,-3.14 -2.165,-6.31625 -5.2,-7.43 5.445,0.8025 10.18625,3.17375 14.165,7.53375"
         id="path2759"
         style="fill:#000000;fill-opacity:1;fill-rule:nonzero;stroke:none" />
      <path
         d="m 476.71087,921.27958 c -5.12625,1.85 -10.39375,3.35 -15.73375,4.77875 5.13,-0.0687 10.5,-0.2425 15.66625,-0.1725 l 0.0675,4.95375 -22.78125,0.0688 -0.0675,-7.18625 c 5.16375,-1.7075 10.32375,-3.3825 15.66375,-4.71 -5.09625,0.0713 -10.32875,0.2425 -15.59625,0.17625 l 0,-5.02625 22.71375,0 L 476.71087,921.27958 Z"
         id="path2763"
         style="fill:#000000;fill-opacity:1;fill-rule:nonzero;stroke:none" />
      <path
         d="m 504.09962,930.9802 -3.6975,0.105 -0.0738,-5.86375 -5.2675,-0.10375 -0.10375,5.9675 -3.66,0 0,-5.86375 -10.04875,-0.10375 0,-5.68875 22.78125,0 L 504.09962,930.9802 Z"
         id="path2767"
         style="fill:#000000;fill-opacity:1;fill-rule:nonzero;stroke:none" />
      <path
         d="m 551.4755,949.32933 -0.07,-13.32625 c 2.5125,-0.90875 4.955,-2.0575 7.29125,-3.48875 l 0,16.815 L 551.4755,949.32933 Z"
         id="path2779"
         style="fill:#000000;fill-opacity:1;fill-rule:nonzero;stroke:none" />
      <path
         d="m 476.64387,938.3772 c 1.01,3.3125 0.62625,7.36 -2.26875,9.62375 -3.42,2.55125 -8.235,2.09625 -12.62875,1.99125 -2.86125,-0.45375 -5.7925,-1.395 -7.39875,-4.08125 -1.425,-2.61625 -1.29125,-6.84 0.52625,-9.21125 3.975,-4.255 10.815,-3.90625 16.2225,-2.86 2.30125,0.59375 4.64125,2.19625 5.5475,4.5375 m -13.3275,0.7275 c -2.0925,0.39 -4.675,0.0375 -6.0375,1.92125 -0.24375,0.87375 0,1.78 0.84,2.19625 2.51375,1.085 5.51125,1.04875 8.47625,1.0125 2.40625,-0.24375 5.16375,0 6.69875,-2.0225 0.2775,-0.73125 -0.07,-1.43125 -0.6625,-1.91625 -2.68625,-1.4 -6.0725,-1.15375 -9.315,-1.19125"
         id="path2783"
         style="fill:#000000;fill-opacity:1;fill-rule:nonzero;stroke:none" />
      <path
         d="m 504.0295,933.7677 c -0.21125,4.95875 1.185,10.9225 -2.51,14.47875 -1.7125,1.0125 -4.36,1.0125 -6.03625,0 -1.32875,-0.90625 -1.9175,-2.26625 -2.095,-3.69875 -0.24375,0.595 -0.31125,1.25625 -0.5225,1.85 -0.45125,1.465 -1.88375,2.93125 -3.4225,3.28125 -2.02125,0.385 -4.22,0.13875 -5.78875,-1.1175 -3.665,-3.73125 -2.05875,-9.7675 -2.33625,-14.79375 L 504.0295,933.7677 z m -19.01625,5.8625 c 0.04,1.3625 -0.2075,2.82625 0.84,3.77 1.01375,0.76375 2.86,0.59 4.01125,0.13875 1.46625,-0.7325 1.39875,-2.41 1.325,-3.90875 L 485.01325,939.6302 z m 10.04875,0 c 0.0737,1.1175 -0.27875,2.40875 0.6625,3.17625 0.94375,0.59375 2.3425,0.59375 3.42,0.3125 1.3275,-0.62625 1.22125,-2.1625 1.18375,-3.48875 L 495.062,939.6302 Z"
         id="path2787"
         style="fill:#000000;fill-opacity:1;fill-rule:nonzero;stroke:none" />
    </g>
  </g>
</svg>
